<svg id="45a3a157-137e-4a56-84c1-d70f8a33616b" data-name="Elegant Logo Kit" xmlns="http://www.w3.org/2000/svg" viewBox="0 0 144.00 144.00"><defs><style>.\39 651b8bf-0513-4ca6-a3df-0e74bac741aa{fill:black;}.c5ba3a81-3f63-4545-a268-80efd9f3afa1{fill:black;}</style></defs><title>RealismusModding</title><g id="c3bca9e9-6513-4469-91b0-c89d81a1fc8e" data-name="BoW trimmed"><path class="9651b8bf-0513-4ca6-a3df-0e74bac741aa" d="M33.53,84.76l-1.83-9.85-1,0V85.11l-3.79.47v-25l3.79.43c4.19.48,5.87,2.93,5.87,7.22,0,2.26-.58,4.3-1.84,5.18l2.11,11Zm-2.8-13.11a2.52,2.52,0,0,0,1.7-.5c.52-.44.94-1.3.94-3a4.06,4.06,0,0,0-.94-3.07,2.67,2.67,0,0,0-1.7-.62Z"/><path class="9651b8bf-0513-4ca6-a3df-0e74bac741aa" d="M39.36,62l7.41.61v3.16l-4.06-.23v5.69l2.95,0v3.39l-2.95.05v6l4.06-.27v3.16l-7.41.68Z"/><path class="9651b8bf-0513-4ca6-a3df-0e74bac741aa" d="M48.25,83.49l3.1-20.68,3.77.26,3,19.84-2.81.16-.56-4-2.92.09-.55,4.13Zm5.21-13.86-.09-.53H53.2l-.08.53L52.27,76l2.09,0Z"/><path class="9651b8bf-0513-4ca6-a3df-0e74bac741aa" d="M60.08,63.21l3,.16v16.8l3.81-.05v2.61l-6.77.17Z"/><path class="9651b8bf-0513-4ca6-a3df-0e74bac741aa" d="M68.54,63.48h2.81V82.59H68.54Z"/><path class="9651b8bf-0513-4ca6-a3df-0e74bac741aa" d="M79.14,68.66a6.17,6.17,0,0,0-.21-1.86c-.18-.51-.47-.87-.91-.87-.73,0-1,.78-1,1.89a4.24,4.24,0,0,0,.7,2c.42.72,1,1.47,1.51,2.28a29.65,29.65,0,0,1,1.82,2.93,6.57,6.57,0,0,1,.85,3,5.81,5.81,0,0,1-.82,3.34A3.36,3.36,0,0,1,78,82.74a3.59,3.59,0,0,1-3.35-1.81A8.14,8.14,0,0,1,74,77.13l2.71-.2a7.15,7.15,0,0,0,.23,2.19c.18.62.49,1,1.09,1.06.83,0,1.15-.84,1.15-2.06A4.78,4.78,0,0,0,78.4,76c-.23-.37-.47-.76-.73-1.15-.54-.78-1.14-1.66-1.76-2.62a10.78,10.78,0,0,1-1.36-2.92,5,5,0,0,1-.23-1.51,5.29,5.29,0,0,1,.82-3A3.45,3.45,0,0,1,78,63.37,3.27,3.27,0,0,1,81.22,65a7.31,7.31,0,0,1,.72,3.38Z"/><path class="9651b8bf-0513-4ca6-a3df-0e74bac741aa" d="M88.73,83.08,86.9,70.55l-.1-.83h-.16V83l-2.58-.14V63.35l3.42-.18,1.71,9.06.13,1.06h.05l.13-1.06L91.26,63l3.7-.19V83.41l-2.82-.15V69.62H92l-.11.86L90,83.14Z"/><path class="9651b8bf-0513-4ca6-a3df-0e74bac741aa" d="M106.1,61.91v17.7a5.54,5.54,0,0,1-.56,2.37,3.44,3.44,0,0,1-3.78,1.92,4.12,4.12,0,0,1-2.38-1,4.43,4.43,0,0,1-1.15-1.65A6.16,6.16,0,0,1,97.74,79V62.59l3-.24V79.19a2,2,0,0,0,.43,1.37.9.9,0,0,0,.6.29.83.83,0,0,0,.93-.7,2,2,0,0,0,.12-.78V62.18Z"/><path class="9651b8bf-0513-4ca6-a3df-0e74bac741aa" d="M114.82,67.53a7.49,7.49,0,0,0-.26-2.31c-.23-.62-.59-1-1.13-1-.89.14-1.17,1.09-1.17,2.45a5,5,0,0,0,.85,2.44c.51.87,1.19,1.77,1.88,2.75a36.19,36.19,0,0,1,2.35,3.67,8.33,8.33,0,0,1,1.13,3.9,7.06,7.06,0,0,1-1.1,4.26,4,4,0,0,1-4,1.4,4.62,4.62,0,0,1-4-2.48,10.37,10.37,0,0,1-.78-4.55l3.15-.19a9,9,0,0,0,.28,2.69c.22.77.59,1.31,1.32,1.37,1,.08,1.43-1,1.43-2.52a6.06,6.06,0,0,0-.92-2.66c-.29-.46-.58-.94-.9-1.42-.66-1-1.37-2-2.1-3.15a12.46,12.46,0,0,1-1.57-3.43,6.07,6.07,0,0,1-.26-1.78,7.08,7.08,0,0,1,.94-3.66,4.81,4.81,0,0,1,3.35-2.25c2.13-.36,3.42.33,4.15,1.53a8.63,8.63,0,0,1,1,4.27Z"/><path class="c5ba3a81-3f63-4545-a268-80efd9f3afa1" d="M144.05,71.91a31,31,0,0,0-6.18-8.65,31,31,0,0,0,3.73-10,31,31,0,0,0-8.21-6.76,31,31,0,0,0,1-10.58,31,31,0,0,0-9.68-4.41A31,31,0,0,0,123,21.06a31.12,31.12,0,0,0-10.15-1.76h-.33a31,31,0,0,0-4.41-9.68c-.79-.06-1.58-.08-2.36-.08a30.44,30.44,0,0,0-8.23,1.11,31,31,0,0,0-6.76-8.21,31,31,0,0,0-10,3.73A31,31,0,0,0,72.14,0a31,31,0,0,0-8.65,6.18,31,31,0,0,0-10-3.73,31,31,0,0,0-6.76,8.21,30.45,30.45,0,0,0-8.23-1.11q-1.17,0-2.36.08a31,31,0,0,0-4.41,9.68h-.33a31.12,31.12,0,0,0-10.15,1.76,31,31,0,0,0-1.75,10.49A31,31,0,0,0,9.86,36a31,31,0,0,0,1,10.58A31,31,0,0,0,2.68,53.3a31,31,0,0,0,3.73,10A31,31,0,0,0,.23,71.91a31,31,0,0,0,6.18,8.65,31,31,0,0,0-3.73,10,31,31,0,0,0,8.21,6.76,31,31,0,0,0-1,10.58,31,31,0,0,0,9.68,4.41,31,31,0,0,0,1.75,10.49,31.12,31.12,0,0,0,10.15,1.76h.33a31,31,0,0,0,4.41,9.68c.79.06,1.58.08,2.36.08a30.45,30.45,0,0,0,8.23-1.11,31,31,0,0,0,6.76,8.21,31,31,0,0,0,10-3.73,31,31,0,0,0,8.65,6.18,31,31,0,0,0,8.65-6.18,31,31,0,0,0,10,3.73,31,31,0,0,0,6.76-8.21,30.45,30.45,0,0,0,8.23,1.11q1.17,0,2.36-.08a31,31,0,0,0,4.41-9.68h.33A31.12,31.12,0,0,0,123,122.76a31,31,0,0,0,1.75-10.49,31,31,0,0,0,9.68-4.41,31,31,0,0,0-1-10.58,31,31,0,0,0,8.21-6.76,31,31,0,0,0-3.73-10A31,31,0,0,0,144.05,71.91Zm-2.26,0a28.65,28.65,0,0,1-5,6.92,24.74,24.74,0,0,0-7.23-6.92A24.74,24.74,0,0,0,136.76,65,28.65,28.65,0,0,1,141.8,71.91ZM126.11,88.15A22.68,22.68,0,0,1,131,96.28a22.68,22.68,0,0,1-9.19,2.31l-3.25.1,1.54,2.86a22.67,22.67,0,0,1,2.59,9.12,24.22,24.22,0,0,1-4.48.42,21.86,21.86,0,0,1-5-.57l-3.16-.74.74,3.16a22.67,22.67,0,0,1,.14,9.47,23,23,0,0,1-9.12-2.59l-2.86-1.54-.1,3.25a22.68,22.68,0,0,1-2.31,9.19,22.81,22.81,0,0,1-8.13-4.86L86,123.65l-.94,3.11A22.67,22.67,0,0,1,80.45,135a22.67,22.67,0,0,1-6.6-6.8l-1.71-2.76-1.71,2.76a22.67,22.67,0,0,1-6.6,6.8,22.67,22.67,0,0,1-4.62-8.28l-.94-3.11-2.37,2.23a22.81,22.81,0,0,1-8.13,4.86,22.68,22.68,0,0,1-2.31-9.19l-.1-3.25-2.86,1.54a23,23,0,0,1-9.12,2.59,22.67,22.67,0,0,1,.14-9.47l.74-3.16-3.16.74a21.86,21.86,0,0,1-5,.57,24.22,24.22,0,0,1-4.48-.42,22.67,22.67,0,0,1,2.59-9.12l1.54-2.86-3.25-.1a22.68,22.68,0,0,1-9.19-2.31,22.68,22.68,0,0,1,4.86-8.13l2.23-2.37-3.11-.94A22.67,22.67,0,0,1,9,80.22a22.67,22.67,0,0,1,6.8-6.6l2.76-1.71L15.81,70.2A22.67,22.67,0,0,1,9,63.6,22.67,22.67,0,0,1,17.29,59L20.4,58l-2.23-2.37a22.68,22.68,0,0,1-4.86-8.13,22.68,22.68,0,0,1,9.19-2.31l3.25-.1-1.54-2.86a22.67,22.67,0,0,1-2.59-9.12,24.22,24.22,0,0,1,4.48-.42,21.86,21.86,0,0,1,5,.57l3.16.74-.74-3.16a22.67,22.67,0,0,1-.14-9.47A23,23,0,0,1,42.5,24l2.86,1.54.1-3.25a22.68,22.68,0,0,1,2.31-9.19,22.81,22.81,0,0,1,8.13,4.86l2.37,2.23.94-3.11a22.67,22.67,0,0,1,4.62-8.28,22.67,22.67,0,0,1,6.6,6.8l1.71,2.76,1.71-2.76a22.67,22.67,0,0,1,6.6-6.8,22.67,22.67,0,0,1,4.62,8.28L86,20.17l2.37-2.23a22.81,22.81,0,0,1,8.13-4.86,22.68,22.68,0,0,1,2.31,9.19l.1,3.25L101.79,24a23,23,0,0,1,9.12-2.59,22.67,22.67,0,0,1-.14,9.47L110,34l3.16-.74a21.86,21.86,0,0,1,5-.57,24.22,24.22,0,0,1,4.48.42,22.67,22.67,0,0,1-2.59,9.12l-1.54,2.86,3.25.1A22.68,22.68,0,0,1,131,47.54a22.68,22.68,0,0,1-4.86,8.13L123.88,58,127,59a22.67,22.67,0,0,1,8.28,4.62,22.67,22.67,0,0,1-6.8,6.6l-2.76,1.71,2.76,1.71a22.67,22.67,0,0,1,6.8,6.6A22.67,22.67,0,0,1,127,84.84l-3.11.94Zm13.32-34.26a28.65,28.65,0,0,1-3.07,8,24.74,24.74,0,0,0-8.78-4.82,24.75,24.75,0,0,0,5.19-8.56A28.63,28.63,0,0,1,139.42,53.88Zm-7-16.8a28.63,28.63,0,0,1-.9,8.52,24.75,24.75,0,0,0-9.72-2.38,24.74,24.74,0,0,0,2.8-9.62A28.74,28.74,0,0,1,132.46,37.08ZM121.39,22.66a28.65,28.65,0,0,1,1.34,8.46,26,26,0,0,0-4.55-.41,23.82,23.82,0,0,0-5.46.62,24.74,24.74,0,0,0,.21-10A28.78,28.78,0,0,1,121.39,22.66ZM105.74,11.56l1.23,0a28.65,28.65,0,0,1,3.48,7.82,24.74,24.74,0,0,0-9.61,2.8,24.75,24.75,0,0,0-2.38-9.72A28.56,28.56,0,0,1,105.74,11.56ZM90.17,4.63a28.63,28.63,0,0,1,5.38,6.66A24.75,24.75,0,0,0,87,16.48,24.74,24.74,0,0,0,82.18,7.7,28.65,28.65,0,0,1,90.17,4.63Zm-18-2.37a28.65,28.65,0,0,1,6.92,5,24.74,24.74,0,0,0-6.92,7.23,24.74,24.74,0,0,0-6.92-7.23A28.65,28.65,0,0,1,72.14,2.26Zm-18,2.37a28.65,28.65,0,0,1,8,3.07,24.74,24.74,0,0,0-4.82,8.78,24.75,24.75,0,0,0-8.56-5.19A28.63,28.63,0,0,1,54.11,4.63Zm-16.8,7,1.23,0a28.56,28.56,0,0,1,7.29.92,24.75,24.75,0,0,0-2.38,9.72,24.74,24.74,0,0,0-9.61-2.8A28.65,28.65,0,0,1,37.31,11.59ZM22.89,22.66a28.77,28.77,0,0,1,8.46-1.34,24.74,24.74,0,0,0,.21,10,23.83,23.83,0,0,0-5.46-.62,26,26,0,0,0-4.55.41A28.65,28.65,0,0,1,22.89,22.66ZM11.82,37.08a28.74,28.74,0,0,1,7.82-3.49,24.74,24.74,0,0,0,2.8,9.62,24.75,24.75,0,0,0-9.72,2.38A28.63,28.63,0,0,1,11.82,37.08Zm-7,16.8a28.63,28.63,0,0,1,6.66-5.39,24.75,24.75,0,0,0,5.19,8.56,24.74,24.74,0,0,0-8.78,4.82A28.65,28.65,0,0,1,4.86,53.88Zm-2.37,18a28.65,28.65,0,0,1,5-6.92,24.74,24.74,0,0,0,7.23,6.92,24.74,24.74,0,0,0-7.23,6.92A28.65,28.65,0,0,1,2.49,71.91Zm2.37,18a28.65,28.65,0,0,1,3.07-8,24.74,24.74,0,0,0,8.78,4.82,24.75,24.75,0,0,0-5.19,8.56A28.63,28.63,0,0,1,4.86,89.94Zm7,16.8a28.63,28.63,0,0,1,.9-8.52,24.75,24.75,0,0,0,9.72,2.38,24.74,24.74,0,0,0-2.8,9.62A28.74,28.74,0,0,1,11.82,106.74Zm11.07,14.43a28.65,28.65,0,0,1-1.34-8.46,26,26,0,0,0,4.55.41,23.82,23.82,0,0,0,5.46-.62,24.74,24.74,0,0,0-.21,10A28.77,28.77,0,0,1,22.89,121.16Zm15.66,11.09-1.23,0a28.65,28.65,0,0,1-3.48-7.82,24.74,24.74,0,0,0,9.61-2.8,24.75,24.75,0,0,0,2.38,9.72A28.56,28.56,0,0,1,38.54,132.26Zm15.57,6.93a28.63,28.63,0,0,1-5.38-6.66,24.75,24.75,0,0,0,8.56-5.19,24.74,24.74,0,0,0,4.82,8.78A28.65,28.65,0,0,1,54.11,139.19Zm18,2.37a28.65,28.65,0,0,1-6.92-5,24.74,24.74,0,0,0,6.92-7.23,24.74,24.74,0,0,0,6.92,7.23A28.65,28.65,0,0,1,72.14,141.57Zm18-2.37a28.65,28.65,0,0,1-8-3.07A24.74,24.74,0,0,0,87,127.34a24.75,24.75,0,0,0,8.56,5.19A28.63,28.63,0,0,1,90.17,139.19Zm16.8-7-1.23,0a28.56,28.56,0,0,1-7.29-.92,24.75,24.75,0,0,0,2.38-9.72,24.74,24.74,0,0,0,9.61,2.8A28.65,28.65,0,0,1,107,132.23Zm14.43-11.07a28.77,28.77,0,0,1-8.46,1.34,24.74,24.74,0,0,0-.21-10,23.82,23.82,0,0,0,5.46.62,26,26,0,0,0,4.55-.41A28.65,28.65,0,0,1,121.39,121.16Zm11.07-14.43a28.74,28.74,0,0,1-7.82,3.49,24.74,24.74,0,0,0-2.8-9.62,24.75,24.75,0,0,0,9.72-2.38A28.63,28.63,0,0,1,132.46,106.74Zm7-16.8a28.63,28.63,0,0,1-6.66,5.39,24.75,24.75,0,0,0-5.19-8.56,24.74,24.74,0,0,0,8.78-4.82A28.65,28.65,0,0,1,139.42,89.94Z"/><path class="9651b8bf-0513-4ca6-a3df-0e74bac741aa" d="M46.61,102.68,45.3,93.91l-.08-.59h-.11v9.37h-1.9v-14h2.51l1.22,6.38.09.74h0l.09-.74,1.22-6.38h2.51v14H49V93.32h-.11l-.08.59-1.31,8.78Z"/><path class="9651b8bf-0513-4ca6-a3df-0e74bac741aa" d="M59.65,99.81a3.8,3.8,0,0,1-.34,1.52,2.61,2.61,0,0,1-.82,1,2.43,2.43,0,0,1-1.58.48,2.49,2.49,0,0,1-1.6-.48,2.55,2.55,0,0,1-.8-1,3.8,3.8,0,0,1-.34-1.52V91.59a3.77,3.77,0,0,1,.34-1.5,2.41,2.41,0,0,1,2.39-1.52,2.55,2.55,0,0,1,1.58.48,2.66,2.66,0,0,1,.82,1,3.77,3.77,0,0,1,.34,1.5ZM57.6,91.59a1.26,1.26,0,0,0-.27-.87.59.59,0,0,0-.42-.15.63.63,0,0,0-.61.51,1.44,1.44,0,0,0-.08.51v8.23a1.21,1.21,0,0,0,.29.87.54.54,0,0,0,.4.15.6.6,0,0,0,.61-.51,1.33,1.33,0,0,0,.08-.51Z"/><path class="9651b8bf-0513-4ca6-a3df-0e74bac741aa" d="M62.94,102.68v-14h1.62c1.9,0,2.92.38,3.48,1.44s.61,2.81.61,5.55-.08,4.46-.61,5.53-1.58,1.44-3.48,1.44ZM65,100.63c.7,0,1.1-.08,1.31-.76a6.1,6.1,0,0,0,.19-1.48c0-.67,0-1.56,0-2.7s0-2,0-2.7a6.39,6.39,0,0,0-.19-1.48c-.21-.67-.61-.74-1.31-.74Z"/><path class="9651b8bf-0513-4ca6-a3df-0e74bac741aa" d="M71.9,102.68v-14h1.62c1.9,0,2.92.38,3.48,1.44s.61,2.81.61,5.55-.08,4.46-.61,5.53-1.58,1.44-3.48,1.44ZM74,100.63c.7,0,1.1-.08,1.31-.76a6.1,6.1,0,0,0,.19-1.48c0-.67,0-1.56,0-2.7s0-2,0-2.7a6.39,6.39,0,0,0-.19-1.48c-.21-.67-.61-.74-1.31-.74Z"/><path class="9651b8bf-0513-4ca6-a3df-0e74bac741aa" d="M80.87,88.72h2.05v14H80.87Z"/><path class="9651b8bf-0513-4ca6-a3df-0e74bac741aa" d="M88.51,95.41l-.17-.65h-.11v7.92H86.34v-14h1.82l2,7.28.17.65h.11V88.72h1.88v14H90.5Z"/><path class="9651b8bf-0513-4ca6-a3df-0e74bac741aa" d="M99,93.73V91.59a1.26,1.26,0,0,0-.27-.87.59.59,0,0,0-.42-.15.63.63,0,0,0-.61.51,1.44,1.44,0,0,0-.08.51V100a1.21,1.21,0,0,0,.29.87.54.54,0,0,0,.4.15.6.6,0,0,0,.61-.51A1.33,1.33,0,0,0,99,100V97.46h-.82V95.73h2.87v7H99.87l-.25-.67a2,2,0,0,1-1.6.82,2.08,2.08,0,0,1-1.46-.48,2.53,2.53,0,0,1-.72-1,3.83,3.83,0,0,1-.23-1.52V91.59a3.77,3.77,0,0,1,.34-1.5,2.41,2.41,0,0,1,2.39-1.52,2.55,2.55,0,0,1,1.58.48,2.66,2.66,0,0,1,.82,1,3.77,3.77,0,0,1,.34,1.5v2.15Z"/><path d="M42.56,42.07a4.1,4.1,0,0,0-.14-1.22c-.12-.34-.31-.58-.6-.58-.48,0-.63.51-.63,1.24a2.82,2.82,0,0,0,.46,1.34c.27.48.63,1,1,1.5a19.28,19.28,0,0,1,1.17,1.9,4.28,4.28,0,0,1,.54,2,3.92,3.92,0,0,1-.53,2.19,2.25,2.25,0,0,1-2,1,2.27,2.27,0,0,1-2.21-1.12,5.33,5.33,0,0,1-.46-2.52l1.8-.17A4.73,4.73,0,0,0,41.1,49c.12.41.32.68.71.68.54,0,.75-.58.75-1.38a3.11,3.11,0,0,0-.48-1.38c-.15-.24-.31-.49-.48-.75-.36-.51-.75-1.09-1.16-1.72a7.13,7.13,0,0,1-.9-1.94,3.35,3.35,0,0,1-.15-1,3.49,3.49,0,0,1,.54-2,2.23,2.23,0,0,1,1.85-1,2.15,2.15,0,0,1,2.11,1.11,4.87,4.87,0,0,1,.46,2.21Z"/><path d="M47,38.72h1.84V51.21H47Z"/><path d="M53.88,44.7l-.15-.58h-.1v7.09H51.94V38.72h1.63l1.79,6.51.15.58h.1V38.72H57.3V51.21H55.67Z"/><path d="M65.13,46.93v1.72A3.39,3.39,0,0,1,64.83,50a2.34,2.34,0,0,1-.73.92,2.18,2.18,0,0,1-1.41.42,2.23,2.23,0,0,1-1.43-.42,2.29,2.29,0,0,1-.71-.92,3.4,3.4,0,0,1-.31-1.36V41.29a3.39,3.39,0,0,1,.31-1.34,2.15,2.15,0,0,1,2.14-1.36A2.29,2.29,0,0,1,64.1,39a2.39,2.39,0,0,1,.73.94,3.37,3.37,0,0,1,.31,1.34V43H63.42V41.29a1.07,1.07,0,0,0-.27-.78.62.62,0,0,0-1,.32,1.87,1.87,0,0,0-.08.46v7.36a1.17,1.17,0,0,0,.29.78.49.49,0,0,0,.36.14.59.59,0,0,0,.63-.46,1.2,1.2,0,0,0,.07-.46V46.93Z"/><path d="M67.94,38.72h4.2v1.89H69.78v3.28h1.7v2h-1.7v3.43h2.36v1.89h-4.2Z"/><path d="M79,42.68v-.87a4.46,4.46,0,0,1,.48-2.24,2.11,2.11,0,0,1,2-1,2.21,2.21,0,0,1,1.94.9,4,4,0,0,1,.51,2.21,11.61,11.61,0,0,1-1.07,4.2,30.8,30.8,0,0,1-1.8,3.5h2.91v1.82H79V49.39c.56-.87,1.07-1.75,1.53-2.63a17.15,17.15,0,0,0,1.05-2.46,8.77,8.77,0,0,0,.53-2.48,3.92,3.92,0,0,0-.1-1c-.08-.29-.24-.51-.51-.51s-.41.19-.49.46a4,4,0,0,0-.12,1.07v.87Z"/><path d="M91.72,48.65A3.39,3.39,0,0,1,91.42,50a2.34,2.34,0,0,1-.73.92,2.18,2.18,0,0,1-1.41.42,2.23,2.23,0,0,1-1.43-.42,2.29,2.29,0,0,1-.71-.92,3.4,3.4,0,0,1-.31-1.36V41.29a3.39,3.39,0,0,1,.31-1.34,2.15,2.15,0,0,1,2.14-1.36,2.29,2.29,0,0,1,1.41.42,2.39,2.39,0,0,1,.73.94,3.37,3.37,0,0,1,.31,1.34Zm-1.83-7.36a1.14,1.14,0,0,0-.24-.78.53.53,0,0,0-.37-.14.57.57,0,0,0-.54.46,1.31,1.31,0,0,0-.07.46v7.36a1.08,1.08,0,0,0,.25.78.49.49,0,0,0,.36.14.54.54,0,0,0,.54-.46,1.19,1.19,0,0,0,.07-.46Z"/><path d="M94.19,41.42V40.25a2.81,2.81,0,0,0,1.55-.88,3,3,0,0,0,.41-.65h1.1V51.21H95.41V41.42Z"/><path d="M105,48.65a3.42,3.42,0,0,1-.36,1.56,2.13,2.13,0,0,1-2,1.14,2.1,2.1,0,0,1-2-1.14,3.42,3.42,0,0,1-.36-1.56V41.54a4.08,4.08,0,0,1,.34-1.82,2.43,2.43,0,0,1,4.11,0,4.09,4.09,0,0,1,.34,1.82v.78h-1.84a9.92,9.92,0,0,0-.08-1.7c-.07-.32-.2-.44-.48-.44a.42.42,0,0,0-.44.32,3.12,3.12,0,0,0-.12,1v2.23a1.81,1.81,0,0,1,2.65.75A3.82,3.82,0,0,1,105,46.1Zm-3,.54a.58.58,0,0,0,.56.56.61.61,0,0,0,.56-.56V45.45a.61.61,0,0,0-.56-.56.56.56,0,0,0-.56.51Z"/></g></svg>
